<?xml version="1.0" standalone="no"?>
<!DOCTYPE svg PUBLIC "-//W3C//DTD SVG 20010904//EN"
 "http://www.w3.org/TR/2001/REC-SVG-20010904/DTD/svg10.dtd">
<svg version="1.0" xmlns="http://www.w3.org/2000/svg"
 width="2766.000000pt" height="2766.000000pt" viewBox="0 0 2766.000000 2766.000000"
 preserveAspectRatio="xMidYMid meet">
<metadata>
Created by potrace 1.14, written by Peter Selinger 2001-2017
</metadata>
<g transform="translate(0.000000,2766.000000) scale(0.100000,-0.100000)"
fill="#000000" stroke="none">
<path d="M13 22658 c4 -13 65 -214 137 -448 72 -234 1242 -4041 2601 -8460
1358 -4419 2485 -8072 2504 -8117 113 -273 361 -500 645 -591 164 -53 109 -52
1945 -52 l1702 0 1988 6053 c1093 3328 2139 6512 2324 7075 l336 1022 3345 -3
c2497 -3 3368 -6 3435 -15 276 -36 505 -88 730 -166 1336 -459 2269 -1646
2396 -3048 15 -167 6 -614 -15 -768 -18 -124 -57 -331 -81 -420 -8 -30 -13
-55 -12 -56 1 -2 41 22 87 52 108 69 125 68 163 -5 38 -76 38 -152 1 -186 -25
-23 -207 -117 -314 -163 -43 -18 -47 -23 -84 -113 -22 -52 -61 -138 -88 -191
-26 -54 -47 -98 -46 -98 2 0 30 11 63 25 69 28 151 33 213 11 63 -22 168 -93
211 -142 41 -47 71 -117 71 -167 0 -59 -53 -225 -110 -343 -103 -216 -211
-350 -301 -374 -60 -17 -159 -6 -222 23 -29 13 -83 50 -122 81 -38 31 -73 56
-77 56 -17 0 -38 -35 -53 -88 -9 -31 -20 -61 -25 -67 -31 -41 -67 -262 -56
-350 10 -74 23 -109 75 -193 63 -103 91 -117 231 -116 78 1 130 8 201 27 193
51 517 237 864 497 156 116 191 136 211 119 8 -6 14 -16 14 -21 0 -12 -351
-360 -399 -396 -18 -14 -35 -38 -41 -61 -13 -48 -28 -62 -183 -161 -143 -91
-190 -114 -357 -173 -143 -50 -173 -57 -195 -44 -10 5 -43 10 -74 12 -111 4
-314 113 -405 217 -77 89 -137 220 -151 332 l-7 55 -47 3 c-45 4 -42 11 12 22
42 10 33 28 -9 20 -27 -5 -35 -4 -30 5 4 6 14 11 22 11 30 0 43 29 54 116 9
74 29 168 56 255 2 9 -34 -21 -81 -67 -125 -122 -246 -226 -375 -322 -63 -47
-119 -89 -125 -94 -13 -12 31 -3 244 48 101 24 185 44 188 44 2 0 -4 -14 -14
-31 -17 -30 -68 -59 -102 -59 -19 0 -162 -72 -205 -104 -17 -13 -53 -31 -79
-40 -26 -10 -61 -29 -76 -42 -16 -13 -33 -24 -38 -24 -6 0 -17 -8 -25 -17 -12
-14 -18 -69 -27 -253 -8 -152 -17 -247 -26 -270 -7 -19 -18 -74 -24 -122 -6
-49 -21 -113 -36 -147 -14 -33 -25 -73 -25 -88 0 -15 -9 -43 -21 -62 -11 -19
-27 -68 -35 -110 -8 -42 -21 -97 -30 -123 -8 -26 -24 -84 -35 -129 -11 -45
-41 -136 -68 -203 -27 -67 -58 -153 -70 -193 -37 -124 -115 -212 -207 -233
-35 -8 -44 -6 -89 25 -85 56 -227 203 -263 272 -60 113 -75 195 -75 398 -1
125 5 210 16 280 10 55 20 115 23 133 3 18 18 72 34 120 16 49 33 122 38 163
6 48 20 95 40 134 34 67 52 181 27 171 -53 -20 -354 -88 -465 -105 -231 -35
-367 -41 -866 -42 l-484 0 -20 -40 c-14 -27 -27 -39 -41 -39 -22 0 -23 18 -4
63 7 17 -52 18 -1481 14 -1606 -4 -1537 -2 -1844 -57 -237 -43 -494 -118 -699
-205 -96 -40 -110 -50 -115 -73 -61 -322 -72 -412 -83 -661 -4 -84 -2 -152 6
-185 6 -28 20 -109 32 -181 15 -94 30 -151 54 -205 18 -41 43 -100 54 -130 41
-109 162 -241 313 -340 31 -20 101 -52 155 -71 l98 -34 195 0 c294 0 386 24
688 177 106 54 199 98 208 98 11 0 13 -6 9 -20 -16 -51 115 7 293 129 13 9 52
32 87 51 87 48 191 118 315 213 58 44 120 86 139 94 19 8 51 26 70 39 25 17
38 20 47 13 10 -8 32 6 86 53 40 35 125 102 189 150 212 160 432 350 607 524
l172 172 0 -58 c0 -51 -3 -61 -26 -79 -15 -12 -37 -21 -50 -21 -24 0 -40 -17
-94 -105 -51 -82 -237 -260 -286 -274 -51 -15 -70 -30 -108 -88 -17 -26 -62
-72 -101 -101 -38 -29 -94 -71 -122 -93 -33 -25 -62 -58 -77 -88 -33 -64 -80
-103 -163 -135 -37 -14 -90 -44 -118 -67 -27 -22 -57 -45 -67 -50 -10 -5 -18
-16 -18 -24 0 -7 -15 -24 -32 -36 -18 -12 -46 -35 -63 -50 -38 -35 -303 -216
-375 -257 -31 -17 -74 -38 -98 -46 -23 -8 -62 -29 -86 -46 -25 -16 -50 -30
-56 -30 -6 0 -23 -12 -37 -26 -14 -14 -44 -32 -66 -40 -23 -8 -62 -28 -87 -44
-68 -43 -109 -58 -238 -85 -64 -14 -135 -29 -157 -35 -22 -5 -59 -10 -81 -10
-23 0 -61 -7 -85 -15 -32 -12 -50 -13 -73 -5 -16 5 -65 10 -110 10 -124 0
-272 26 -341 59 -33 15 -89 42 -125 58 -196 90 -463 359 -589 595 -55 100
-117 289 -131 391 -6 45 -15 113 -21 150 -11 68 -6 122 10 112 5 -3 15 -37 22
-76 18 -103 32 -64 22 62 -5 56 -5 131 -1 168 12 109 10 207 -4 193 -7 -7 -14
-64 -17 -151 -3 -77 -9 -142 -13 -146 -4 -4 -12 -4 -19 0 -18 12 0 301 27 424
l7 35 -49 -29 c-217 -125 -481 -332 -684 -535 -612 -612 -971 -1406 -1030
-2275 -6 -92 -10 -847 -10 -1952 l0 -1803 1770 0 1770 0 0 1258 c0 751 4 1291
10 1342 58 504 449 890 952 939 154 15 2353 24 2453 11 99 -14 269 -69 355
-116 175 -96 323 -242 422 -419 25 -44 330 -740 679 -1547 l634 -1468 1878 0
c1785 0 1879 1 1874 18 -2 9 -383 910 -846 2002 -582 1371 -849 2011 -863
2070 -30 122 -29 303 1 425 25 99 81 227 132 302 54 79 136 159 284 278 873
701 1573 1605 2018 2610 543 1225 731 2473 571 3795 l-16 135 -576 1470 -575
1470 -92 130 c-216 305 -432 561 -725 858 -565 575 -1160 1013 -1855 1367
-769 391 -1616 639 -2482 725 -341 33 -634 36 -3603 33 l-2935 -3 -473 -1440
c-260 -792 -635 -1935 -833 -2540 -199 -605 -1009 -3075 -1801 -5490 -792
-2414 -1456 -4426 -1476 -4470 -104 -230 -237 -388 -421 -499 -173 -104 -344
-150 -561 -149 -161 1 -266 21 -412 83 -237 98 -456 322 -547 560 -46 118
-518 1689 -2301 7655 -914 3057 -1674 5593 -1690 5635 -116 300 -386 537 -718
628 l-97 27 -1699 3 -1698 2 5 -22z m19687 -10686 c0 -20 -13 -40 -46 -72 -25
-25 -59 -64 -75 -87 -21 -30 -37 -43 -54 -43 -13 0 -31 -10 -39 -22 -24 -34
-20 1 5 41 25 41 103 121 118 121 6 0 18 15 27 33 33 65 64 79 64 29z m-200
-61 c0 -5 -9 -11 -20 -14 -20 -5 -26 3 -13 16 9 10 33 8 33 -2z m-60 -51 c0
-5 -2 -10 -4 -10 -3 0 -8 5 -11 10 -3 6 -1 10 4 10 6 0 11 -4 11 -10z m-40
-39 c0 -12 -20 -25 -27 -18 -7 7 6 27 18 27 5 0 9 -4 9 -9z m-109 -102 c-13
-11 -27 -17 -30 -13 -7 7 28 34 43 34 6 -1 0 -10 -13 -21z m163 -17 c3 -5 -6
-24 -19 -44 -13 -19 -28 -50 -32 -69 -10 -37 -38 -46 -56 -18 -14 23 -1 64 34
104 29 33 62 45 73 27z m-294 -106 c0 -3 -4 -8 -10 -11 -5 -3 -10 -1 -10 4 0
6 5 11 10 11 6 0 10 -2 10 -4z m-33 -31 c-4 -8 -11 -15 -17 -15 -14 0 -13 27
3 33 16 6 21 1 14 -18z m-27 -29 c0 -18 -15 -36 -31 -36 -22 0 -24 11 -7 28
11 11 38 17 38 8z m-130 -106 c0 -5 -5 -10 -11 -10 -5 0 -7 5 -4 10 3 6 8 10
11 10 2 0 4 -4 4 -10z m-179 -179 c-19 -27 -57 -49 -66 -39 -2 2 15 24 37 48
44 48 64 41 29 -9z m-81 -63 c0 -14 -30 -48 -42 -48 -12 0 -10 34 4 48 15 15
38 16 38 0z m-77 -60 c-22 -25 -53 -42 -61 -34 -8 9 61 65 71 59 5 -3 0 -14
-10 -25z m-203 -162 c0 -8 -16 -23 -35 -35 -44 -25 -45 -19 -2 19 37 34 37 34
37 16z m-200 -166 c0 -5 -4 -10 -10 -10 -5 0 -10 5 -10 10 0 6 5 10 10 10 6 0
10 -4 10 -10z m-106 -75 c-7 -17 -36 -35 -56 -35 -14 1 37 50 52 50 5 0 7 -7
4 -15z m-44 -65 c0 -5 -13 -10 -28 -10 -16 0 -37 -7 -48 -15 -16 -12 -17 -16
-4 -24 8 -6 11 -13 7 -18 -8 -7 -27 14 -27 30 0 4 9 16 20 27 21 21 80 28 80
10z m-240 -170 c0 -11 -4 -20 -10 -20 -5 0 -10 2 -10 4 0 2 -3 11 -6 20 -4 11
-1 16 10 16 9 0 16 -8 16 -20z m-68 -24 c-11 -6 -30 -23 -42 -38 -12 -16 -27
-28 -34 -28 -7 0 -32 -14 -55 -31 -23 -16 -47 -29 -54 -26 -12 4 112 106 158
130 33 17 60 11 27 -7z m-202 -136 c0 -12 -40 -34 -47 -26 -9 8 17 36 33 36 8
0 14 -4 14 -10z m-200 -114 c0 -3 -4 -8 -10 -11 -5 -3 -10 -1 -10 4 0 6 5 11
10 11 6 0 10 -2 10 -4z"/>
<path d="M23927 13768 c-85 -61 -237 -202 -294 -273 l-56 -70 6 -94 c4 -58 12
-103 22 -117 17 -27 56 -32 75 -10 6 8 34 29 61 46 65 42 135 138 209 285 58
116 84 203 73 246 -8 29 -45 23 -96 -13z"/>
<path d="M22088 12399 l-116 -58 -13 -56 -12 -55 -33 6 c-29 5 -34 3 -48 -25
-19 -36 -20 -63 -4 -79 9 -9 7 -16 -9 -32 -14 -12 -19 -27 -16 -40 3 -11 -2
-31 -11 -45 -20 -30 -22 -58 -2 -33 16 22 26 13 26 -22 0 -35 -18 -88 -42
-122 -10 -14 -18 -35 -18 -46 0 -12 -4 -24 -10 -27 -5 -3 -7 -19 -3 -36 4 -20
0 -35 -11 -48 -12 -13 -20 -48 -26 -109 -4 -49 -15 -102 -23 -118 -22 -44 -30
-126 -16 -170 6 -22 15 -115 19 -209 8 -167 17 -223 43 -259 18 -24 36 -14 81
47 131 178 348 769 411 1122 18 97 32 377 21 418 -8 32 -32 57 -54 56 -9 -1
-69 -28 -134 -60z m-268 -688 c0 -6 -4 -13 -10 -16 -5 -3 -10 1 -10 9 0 9 5
16 10 16 6 0 10 -4 10 -9z m-10 -66 c0 -8 -4 -17 -10 -20 -6 -4 -10 5 -10 20
0 15 4 24 10 20 6 -3 10 -12 10 -20z m-20 -76 c0 -18 -2 -19 -15 -9 -8 7 -15
16 -15 21 0 5 7 9 15 9 9 0 15 -9 15 -21z"/>
<path d="M21737 12252 c-20 -9 -77 -159 -77 -207 0 -39 -40 -213 -78 -340 -16
-55 -33 -134 -36 -175 -4 -41 -14 -118 -22 -170 -15 -97 -10 -275 7 -286 16
-9 26 39 39 171 6 72 20 173 30 225 10 52 24 129 31 170 6 41 31 145 55 230
24 85 51 195 59 245 9 49 18 102 21 118 6 28 2 31 -29 19z"/>
<path d="M21781 11876 c-8 -9 -10 -23 -6 -33 6 -16 8 -15 16 6 13 32 7 47 -10
27z"/>
<path d="M15302 11587 c-14 -34 -16 -87 -2 -87 11 0 23 59 18 91 -4 24 -5 24
-16 -4z"/>
<path d="M17227 10133 c-13 -12 -7 -33 8 -33 8 0 15 9 15 20 0 20 -11 26 -23
13z"/>
</g>
</svg>
